<svg width="24" height="24" viewBox="0 0 24 24" fill="none" xmlns="http://www.w3.org/2000/svg">
<path d="M18.4062 15.5796C18.8733 16.0172 19.0967 16.4722 19.0967 16.8979V19.0962H3.9043V16.8979C3.9043 16.4723 4.1271 16.0171 4.59375 15.5796C4.23323 15.9415 3.9834 16.385 3.9834 16.8979V19.0171H19.0176V16.8979C19.0176 16.3848 18.767 15.9416 18.4062 15.5796ZM11.501 13.6196C13.5885 13.6197 15.4647 14.0009 16.8369 14.6021C16.7726 14.5754 16.7078 14.5484 16.6416 14.5229C15.3014 14.0074 13.4838 13.6988 11.501 13.6987C9.51793 13.6987 7.69967 14.0073 6.35938 14.5229C6.29292 14.5485 6.22763 14.5753 6.16309 14.6021C7.53546 14.0007 9.41285 13.6196 11.501 13.6196ZM11.501 3.90381C12.3701 3.90394 13.2037 4.24922 13.8184 4.86377C14.4331 5.47856 14.7783 6.31269 14.7783 7.18213C14.7783 8.05153 14.4331 8.88573 13.8184 9.50049C13.2037 10.115 12.3701 10.4603 11.501 10.4604C10.6317 10.4604 9.79738 10.1151 9.18262 9.50049C8.56785 8.88573 8.22268 8.05153 8.22266 7.18213C8.22266 6.31269 8.56783 5.47856 9.18262 4.86377C9.79738 4.24911 10.6316 3.90381 11.501 3.90381ZM11.501 3.98291C10.6526 3.98291 9.83816 4.32053 9.23828 4.92041C8.63859 5.52026 8.30176 6.33391 8.30176 7.18213C8.30178 8.03036 8.63855 8.84401 9.23828 9.44385C9.83816 10.0437 10.6526 10.3804 11.501 10.3804C12.3492 10.3802 13.1629 10.0436 13.7627 9.44385C14.3624 8.84401 14.6992 8.03036 14.6992 7.18213C14.6992 6.33391 14.3624 5.52026 13.7627 4.92041C13.1629 4.32065 12.3492 3.98304 11.501 3.98291Z" fill="black" stroke="#009688"/>
</svg>
