<svg width="20" height="20" viewBox="0 0 20 20" fill="none" xmlns="http://www.w3.org/2000/svg">
<path fill-rule="evenodd" clip-rule="evenodd" d="M12.5729 0.0791701C12.7507 -0.00974263 12.9566 -0.0244009 13.1452 0.0384175C13.3339 0.101236 13.4898 0.23639 13.5789 0.41417L15.3919 4.04017C15.8192 4.06084 16.2092 4.09617 16.5619 4.14617C17.6179 4.29717 18.4919 4.62317 19.1129 5.39117C19.7339 6.15917 19.8699 7.08217 19.7969 8.14617C19.7269 9.17717 19.4469 10.4782 19.0989 12.1032L18.6479 14.2102C18.4129 15.3072 18.2219 16.1962 17.9819 16.8902C17.7319 17.6152 17.4019 18.2102 16.8399 18.6652C16.2779 19.1202 15.6259 19.3172 14.8659 19.4102C14.1359 19.4992 13.2259 19.4992 12.1059 19.4992H7.70986C6.58786 19.4992 5.67886 19.4992 4.94886 19.4102C4.18886 19.3172 3.53686 19.1202 2.97486 18.6652C2.41286 18.2102 2.08286 17.6152 1.83286 16.8912C1.59286 16.1962 1.40286 15.3072 1.16686 14.2112L0.715861 12.1042C0.367861 10.4782 0.088861 9.17717 0.017861 8.14617C-0.055139 7.08217 0.080861 6.16017 0.701861 5.39117C1.32186 4.62317 2.19586 4.29717 3.25186 4.14617C3.60519 4.09684 3.99519 4.0615 4.42186 4.04017L6.23786 0.41417C6.32763 0.237801 6.48348 0.104062 6.67143 0.042098C6.85938 -0.019866 7.0642 -0.00503224 7.24127 0.0833668C7.41833 0.171766 7.55328 0.326564 7.6167 0.514028C7.68012 0.701493 7.66688 0.906426 7.57986 1.08417L6.11986 4.00117C6.48386 3.99917 6.86686 3.9985 7.26886 3.99917L12.5469 3.99917C12.9489 3.99917 13.3319 3.99984 13.6959 4.00117L12.2369 1.08417C12.1479 0.906331 12.1333 0.700464 12.1961 0.511822C12.2589 0.323179 12.3941 0.1672 12.5719 0.0781702M3.63986 5.60717L3.23686 6.41317C3.19196 6.50138 3.16497 6.59761 3.15743 6.69631C3.1499 6.795 3.16198 6.89421 3.19297 6.98822C3.22396 7.08222 3.27325 7.16916 3.338 7.24402C3.40276 7.31889 3.48169 7.38019 3.57025 7.42441C3.65881 7.46862 3.75524 7.49487 3.85399 7.50163C3.95274 7.5084 4.05185 7.49555 4.14562 7.46383C4.23938 7.43211 4.32593 7.38214 4.40029 7.31681C4.47465 7.25148 4.53534 7.17207 4.57886 7.08317L5.36586 5.50917C5.93586 5.49917 6.58586 5.49817 7.32986 5.49817L12.4859 5.49817C13.2299 5.49817 13.8799 5.49817 14.4499 5.50817L15.2369 7.08317C15.3266 7.25954 15.4825 7.39328 15.6704 7.45524C15.8584 7.51721 16.0632 7.50237 16.2403 7.41397C16.4173 7.32557 16.5523 7.17078 16.6157 6.98331C16.6791 6.79585 16.6659 6.59091 16.5789 6.41317L16.1759 5.60717L16.3499 5.63017C17.2339 5.75717 17.6669 5.98817 17.9469 6.33317C18.2219 6.67317 18.3569 7.13617 18.3029 7.99817L1.51286 7.99817C1.45886 7.13617 1.59386 6.67317 1.86886 6.33317C2.14886 5.98817 2.58186 5.75717 3.46586 5.63017L3.63986 5.60717ZM2.19586 11.8492C2.02394 11.0683 1.86359 10.2848 1.71486 9.49917L18.1009 9.49917C17.9515 10.2848 17.7908 11.0682 17.6189 11.8492L17.1909 13.8492C16.9429 15.0042 16.7709 15.8032 16.5639 16.4012C16.3639 16.9812 16.1599 17.2872 15.8969 17.4992C15.6349 17.7112 15.2919 17.8472 14.6849 17.9212C14.0559 17.9982 13.2379 17.9992 12.0569 17.9992H7.75786C6.57786 17.9992 5.75986 17.9982 5.13086 17.9212C4.52286 17.8472 4.18086 17.7112 3.91886 17.4992C3.65586 17.2872 3.45086 16.9802 3.25186 16.4012C3.04486 15.8032 2.87186 15.0042 2.62486 13.8492L2.19586 11.8492Z" fill="#017E6A"/>
</svg>
