<svg xmlns="http://www.w3.org/2000/svg" width="24" height="24" viewBox="0 0 24 24" fill="none">
  <path d="M5.27931 12.8357V12.8397C5.25679 12.9247 5.21775 13.0043 5.16443 13.0742C5.1111 13.144 5.04453 13.2026 4.96853 13.2467C4.89253 13.2908 4.80858 13.3195 4.72149 13.3311C4.6344 13.3427 4.54587 13.337 4.46097 13.3144C3.88465 13.162 3.98628 12.4974 3.98628 12.4974L4.01035 12.4145C4.01035 12.4145 4.04511 12.3022 4.07319 12.2206C4.41634 11.2585 4.92149 10.3622 5.5668 9.57038C6.76623 8.10753 8.784 6.65137 11.9865 6.65137C15.189 6.65137 17.2068 8.10753 18.4075 9.57038C19.0528 10.3622 19.558 11.2585 19.9011 12.2206C19.9299 12.3033 19.9567 12.3867 19.9814 12.4707L19.9854 12.4881V12.4934L19.9867 12.4961C20.0291 12.6663 20.003 12.8463 19.9139 12.9974C19.8248 13.1484 19.6799 13.2585 19.5105 13.3037C19.3411 13.349 19.1606 13.3258 19.0081 13.2393C18.8555 13.1527 18.7431 13.0097 18.695 12.8411L18.6937 12.8357L18.683 12.8023L18.6362 12.6565C18.3447 11.8443 17.9175 11.0874 17.3726 10.4181C16.3804 9.20801 14.721 7.98853 11.9865 7.98853C9.25201 7.98853 7.59393 9.20801 6.60042 10.4181C6.05553 11.0874 5.62825 11.8443 5.33681 12.6565L5.27931 12.8357ZM8.6436 14.0057C8.6436 13.1191 8.9958 12.2689 9.62271 11.642C10.2496 11.015 11.0999 10.6628 11.9865 10.6628C12.8731 10.6628 13.7234 11.015 14.3503 11.642C14.9772 12.2689 15.3294 13.1191 15.3294 14.0057C15.3294 14.8923 14.9772 15.7426 14.3503 16.3695C13.7234 16.9964 12.8731 17.3486 11.9865 17.3486C11.0999 17.3486 10.2496 16.9964 9.62271 16.3695C8.9958 15.7426 8.6436 14.8923 8.6436 14.0057Z" fill="currentColor"/>
</svg>








