<svg xmlns="http://www.w3.org/2000/svg" width="24" height="24" viewBox="0 0 24 24" fill="none">
  <path d="M14.7255 15.6344L19.9013 20.8115C19.9611 20.8713 20.032 20.9187 20.1101 20.951C20.1882 20.9834 20.2719 21 20.3564 21C20.4409 21 20.5246 20.9834 20.6027 20.951C20.6808 20.9187 20.7517 20.8713 20.8115 20.8115C20.8713 20.7517 20.9187 20.6808 20.951 20.6027C20.9834 20.5246 21 20.4409 21 20.3564C21 20.2719 20.9834 20.1882 20.951 20.1101C20.9187 20.032 20.8713 19.9611 20.8115 19.9013L4.09871 3.18851C4.03895 3.12874 3.968 3.08134 3.88991 3.04899C3.81182 3.01665 3.72813 3 3.64361 3C3.55909 3 3.4754 3.01665 3.39731 3.04899C3.31923 3.08134 3.24827 3.12874 3.18851 3.18851C3.12874 3.24827 3.08134 3.31923 3.04899 3.39731C3.01665 3.4754 3 3.55909 3 3.64361C3 3.72813 3.01665 3.81182 3.04899 3.88991C3.08134 3.968 3.12874 4.03895 3.18851 4.09871L7.34099 8.2512C6.77595 8.65172 6.26742 9.12651 5.82913 9.66278C5.2087 10.4241 4.72303 11.2858 4.39311 12.2108C4.36612 12.2893 4.33269 12.3973 4.33269 12.3973L4.30955 12.477C4.30955 12.477 4.21185 13.1159 4.76594 13.2625C4.93062 13.306 5.10584 13.2824 5.25312 13.1968C5.4004 13.1112 5.5077 12.9707 5.55144 12.8061L5.55272 12.8022L5.60801 12.6299C5.88821 11.849 6.29902 11.1213 6.8229 10.4779C7.23561 9.9725 7.72287 9.53293 8.26791 9.17426L10.2966 11.2029C9.8872 11.4595 9.54093 11.8051 9.28354 12.214C9.02614 12.6228 8.86424 13.0845 8.80987 13.5646C8.75551 14.0446 8.81008 14.5308 8.96952 14.9869C9.12896 15.443 9.38918 15.8572 9.73082 16.1989C10.0725 16.5405 10.4867 16.8007 10.9428 16.9602C11.3989 17.1196 11.885 17.1742 12.3651 17.1198C12.8452 17.0654 13.3068 16.9035 13.7157 16.6461C14.1246 16.3887 14.4702 16.0425 14.7268 15.6331M9.84148 7.11216L10.9394 8.21006C11.2728 8.16549 11.6263 8.14321 12 8.14321C14.6278 8.14321 16.2245 9.31567 17.1784 10.4791C17.7023 11.1225 18.1131 11.8503 18.3933 12.6312C18.4147 12.6938 18.4297 12.7405 18.4383 12.7714L18.4486 12.8035V12.8074L18.4498 12.8086C18.4974 12.9691 18.6057 13.1046 18.7516 13.1865C18.8976 13.2684 19.0697 13.2901 19.2314 13.2471C19.3931 13.2041 19.5317 13.0997 19.6176 12.9561C19.7036 12.8125 19.7302 12.6411 19.6917 12.4782V12.4744L19.6904 12.4692L19.6853 12.4525C19.6635 12.3712 19.6378 12.2909 19.6082 12.2121C19.2783 11.2871 18.7926 10.4253 18.1722 9.66407C17.0203 8.25762 15.0803 6.85761 12.0026 6.85761C11.2081 6.85761 10.4894 6.94888 9.84148 7.11216Z" fill="currentColor"/>
</svg>
