<svg width="17" height="11" viewBox="0 0 17 11" fill="none" xmlns="http://www.w3.org/2000/svg">
<path d="M1.29994 6.18436V6.18837C1.27742 6.2733 1.23838 6.35295 1.18506 6.42278C1.13173 6.49261 1.06516 6.55125 0.98916 6.59533C0.913158 6.63942 0.829212 6.66809 0.74212 6.67971C0.655029 6.69134 0.566502 6.68568 0.481599 6.66306C-0.0947161 6.51062 0.0069079 5.84606 0.0069079 5.84606L0.0309769 5.76315C0.0309769 5.76315 0.0657429 5.65083 0.0938233 5.56926C0.436966 4.60716 0.942115 3.71082 1.58743 2.91902C2.78686 1.45617 4.80463 0 8.00713 0C11.2096 0 13.2274 1.45617 14.4282 2.91902C15.0735 3.71082 15.5786 4.60716 15.9218 5.56926C15.9506 5.65194 15.9773 5.73532 16.002 5.81931L16.006 5.8367V5.84204L16.0073 5.84472C16.0498 6.01489 16.0236 6.19492 15.9345 6.34599C15.8454 6.49707 15.7006 6.60709 15.5311 6.65234C15.3617 6.6976 15.1812 6.67446 15.0287 6.58792C14.8762 6.50138 14.7637 6.35837 14.7156 6.1897L14.7143 6.18436L14.7036 6.15093L14.6568 6.00518C14.3654 5.19289 13.9381 4.43599 13.3932 3.76677C12.401 2.55665 10.7416 1.33716 8.00713 1.33716C5.27264 1.33716 3.61456 2.55665 2.62105 3.76677C2.07616 4.43599 1.64888 5.19289 1.35744 6.00518L1.29994 6.18436ZM4.66423 7.35437C4.66423 6.46778 5.01643 5.6175 5.64334 4.99059C6.27026 4.36367 7.12053 4.01147 8.00713 4.01147C8.89372 4.01147 9.744 4.36367 10.3709 4.99059C10.9978 5.6175 11.35 6.46778 11.35 7.35437C11.35 8.24096 10.9978 9.09124 10.3709 9.71815C9.744 10.3451 8.89372 10.6973 8.00713 10.6973C7.12053 10.6973 6.27026 10.3451 5.64334 9.71815C5.01643 9.09124 4.66423 8.24096 4.66423 7.35437Z" fill="black"/>
</svg>
