<svg width="24" height="24" viewBox="0 0 24 24" fill="none" xmlns="http://www.w3.org/2000/svg">
<path d="M12.0601 18.0795L7.45505 20.8312C7.25162 20.9596 7.03893 21.0147 6.81701 20.9963C6.59508 20.978 6.40089 20.9046 6.23444 20.7762C6.06799 20.6478 5.93854 20.4874 5.84607 20.2952C5.7536 20.1029 5.7351 19.8872 5.79058 19.648L7.01119 14.4472L2.93325 10.9525C2.74831 10.7874 2.63291 10.5992 2.58704 10.3878C2.54118 10.1765 2.55486 9.97032 2.6281 9.76926C2.70133 9.5682 2.8123 9.40309 2.96099 9.27394C3.10968 9.1448 3.31312 9.06225 3.57129 9.02629L8.95307 8.5585L11.0337 3.66042C11.1261 3.44028 11.2696 3.27517 11.4642 3.1651C11.6588 3.05503 11.8574 3 12.0601 3C12.2628 3 12.4614 3.05503 12.656 3.1651C12.8505 3.27517 12.994 3.44028 13.0865 3.66042L15.1671 8.5585L20.5489 9.02629C20.8078 9.06298 21.0112 9.14553 21.1592 9.27394C21.3071 9.40236 21.4181 9.56746 21.4921 9.76926C21.566 9.97105 21.5801 10.1776 21.5342 10.3889C21.4884 10.6003 21.3726 10.7881 21.1869 10.9525L17.109 14.4472L18.3296 19.648C18.385 19.8865 18.3666 20.1022 18.2741 20.2952C18.1816 20.4882 18.0522 20.6485 17.8857 20.7762C17.7193 20.9039 17.5251 20.9772 17.3031 20.9963C17.0812 21.0154 16.8685 20.9604 16.6651 20.8312L12.0601 18.0795Z" fill="#FDBA06"/>
</svg>
