<svg width="21" height="10" viewBox="0 0 21 10" fill="none" xmlns="http://www.w3.org/2000/svg">
<path d="M5 6.23C4.65533 6.23 4.364 6.11133 4.126 5.874C3.888 5.63667 3.769 5.34533 3.769 5C3.769 4.65467 3.888 4.36333 4.126 4.126C4.364 3.88867 4.65533 3.76967 5 3.769C5.34467 3.76833 5.636 3.88733 5.874 4.126C6.112 4.36467 6.231 4.656 6.231 5C6.231 5.344 6.112 5.63533 5.874 5.874C5.636 6.11267 5.34467 6.23167 5 6.231M5 10C3.61533 10 2.436 9.513 1.462 8.539C0.488001 7.565 0.00066735 6.38533 6.8306e-07 5C-0.000665984 3.61467 0.486667 2.43533 1.462 1.462C2.43733 0.488667 3.61667 0.00133333 5 0C6.02667 0 6.95267 0.278333 7.778 0.835C8.60333 1.391 9.20567 2.11267 9.585 3H18.789L20.789 5L17.596 8.154L15.884 6.866L14.077 8.192L12.298 7H9.585C9.205 7.87467 8.60267 8.59333 7.778 9.156C6.95333 9.71867 6.02733 10 5 10ZM5 9C5.98467 9 6.82467 8.70367 7.52 8.111C8.21533 7.51833 8.66067 6.81467 8.856 6H12.616L14.046 6.967L15.904 5.634L17.525 6.856L19.381 5L18.381 4H8.856C8.66133 3.18467 8.216 2.481 7.52 1.889C6.824 1.297 5.984 1.00067 5 1C3.9 1 2.95833 1.39167 2.175 2.175C1.39167 2.95833 1 3.9 1 5C1 6.1 1.39167 7.04167 2.175 7.825C2.95833 8.60833 3.9 9 5 9Z" fill="black"/>
</svg>
