<svg width="24" height="24" viewBox="0 0 24 24" fill="none" xmlns="http://www.w3.org/2000/svg">
<mask id="path-1-inside-1_1742_3362" fill="white">
<path d="M16.5 7.55556L15.231 8.80889L17.553 11.1111H8.4V12.8889H17.553L15.231 15.1822L16.5 16.4444L21 12M4.8 5.77778H12V4H4.8C3.81 4 3 4.8 3 5.77778V18.2222C3 19.2 3.81 20 4.8 20H12V18.2222H4.8V5.77778Z"/>
</mask>
<path d="M16.5 7.55556L15.231 8.80889L17.553 11.1111H8.4V12.8889H17.553L15.231 15.1822L16.5 16.4444L21 12M4.8 5.77778H12V4H4.8C3.81 4 3 4.8 3 5.77778V18.2222C3 19.2 3.81 20 4.8 20H12V18.2222H4.8V5.77778Z" fill="#FF4934"/>
<path d="M15.231 8.80889L14.5283 8.0974L13.8093 8.80751L14.5269 9.51901L15.231 8.80889ZM17.553 11.1111V12.1111H19.9819L18.2571 10.401L17.553 11.1111ZM8.4 11.1111V10.1111H7.4V11.1111H8.4ZM8.4 12.8889H7.4V13.8889H8.4V12.8889ZM17.553 12.8889L18.2557 13.6004L19.9886 11.8889H17.553V12.8889ZM15.231 15.1822L14.5283 14.4707L13.8105 15.1797L14.5258 15.8912L15.231 15.1822ZM16.5 16.4444L15.7948 17.1534L16.4975 17.8524L17.2027 17.1559L16.5 16.4444ZM4.8 5.77778V4.77778H3.8V5.77778H4.8ZM12 5.77778V6.77778H13V5.77778H12ZM12 4H13V3H12V4ZM12 20V21H13V20H12ZM12 18.2222H13V17.2222H12V18.2222ZM4.8 18.2222H3.8V19.2222H4.8V18.2222ZM16.5 7.55556L15.7973 6.84407L14.5283 8.0974L15.231 8.80889L15.9337 9.52037L17.2027 8.26704L16.5 7.55556ZM15.231 8.80889L14.5269 9.51901L16.8489 11.8212L17.553 11.1111L18.2571 10.401L15.9351 8.09876L15.231 8.80889ZM17.553 11.1111V10.1111H8.4V11.1111V12.1111H17.553V11.1111ZM8.4 11.1111H7.4V12.8889H8.4H9.4V11.1111H8.4ZM8.4 12.8889V13.8889H17.553V12.8889V11.8889H8.4V12.8889ZM17.553 12.8889L16.8503 12.1774L14.5283 14.4707L15.231 15.1822L15.9337 15.8937L18.2557 13.6004L17.553 12.8889ZM15.231 15.1822L14.5258 15.8912L15.7948 17.1534L16.5 16.4444L17.2052 15.7354L15.9362 14.4732L15.231 15.1822ZM16.5 16.4444L17.2027 17.1559L21.7027 12.7115L21 12L20.2973 11.2885L15.7973 15.733L16.5 16.4444ZM4.8 5.77778V6.77778H12V5.77778V4.77778H4.8V5.77778ZM12 5.77778H13V4H12H11V5.77778H12ZM12 4V3H4.8V4V5H12V4ZM4.8 4V3C3.26946 3 2 4.23604 2 5.77778H3H4C4 5.36396 4.35054 5 4.8 5V4ZM3 5.77778H2V18.2222H3H4V5.77778H3ZM3 18.2222H2C2 19.764 3.26946 21 4.8 21V20V19C4.35054 19 4 18.636 4 18.2222H3ZM4.8 20V21H12V20V19H4.8V20ZM12 20H13V18.2222H12H11V20H12ZM12 18.2222V17.2222H4.8V18.2222V19.2222H12V18.2222ZM4.8 18.2222H5.8V5.77778H4.8H3.8V18.2222H4.8Z" fill="#FF4934" mask="url(#path-1-inside-1_1742_3362)"/>
</svg>
