<svg width="24" height="24" viewBox="0 0 24 24" fill="none" xmlns="http://www.w3.org/2000/svg">
<path d="M14.6667 11.8269L10.9333 16.4038L9.33333 14.5698M8 8.23077V6.92308C8 5.88261 8.42143 4.88476 9.17157 4.14904C9.92172 3.41332 10.9391 3 12 3C13.0609 3 14.0783 3.41332 14.8284 4.14904C15.5786 4.88476 16 5.88261 16 6.92308V8.23077M4.66667 8.23077C4.48986 8.23077 4.32029 8.29966 4.19526 8.42228C4.07024 8.5449 4 8.7112 4 8.88462V17.7115C4 18.9473 5.07333 20 6.33333 20H17.6667C18.9267 20 20 18.9984 20 17.7626V8.88462C20 8.7112 19.9298 8.5449 19.8047 8.42228C19.6797 8.29966 19.5101 8.23077 19.3333 8.23077H4.66667Z" stroke="#616161" stroke-linecap="round" stroke-linejoin="round"/>
</svg>
