<svg width="402" height="402" viewBox="0 0 402 402" fill="none" xmlns="http://www.w3.org/2000/svg">
<g filter="url(#filter0_d_924_5177)">
<path d="M160.147 42.7681C182.4 19.4715 219.6 19.4715 241.853 42.7681V42.7681C252.823 54.2528 268.121 60.5895 283.999 60.2258V60.2258C316.208 59.4881 342.512 85.7918 341.774 118.001V118.001C341.411 133.879 347.747 149.177 359.232 160.147V160.147C382.529 182.4 382.529 219.6 359.232 241.853V241.853C347.747 252.823 341.411 268.121 341.774 283.999V283.999C342.512 316.208 316.208 342.512 283.999 341.774V341.774C268.121 341.411 252.823 347.747 241.853 359.232V359.232C219.6 382.529 182.4 382.529 160.147 359.232V359.232C149.177 347.747 133.879 341.411 118.001 341.774V341.774C85.7918 342.512 59.4881 316.208 60.2258 283.999V283.999C60.5895 268.121 54.2528 252.823 42.7681 241.853V241.853C19.4715 219.6 19.4715 182.4 42.7681 160.147V160.147C54.2528 149.177 60.5895 133.879 60.2258 118.001V118.001C59.4881 85.7918 85.7918 59.4881 118.001 60.2258V60.2258C133.879 60.5895 149.177 54.2528 160.147 42.7681V42.7681Z" fill="#F982A4"/>
<path d="M166.199 66.2099C185.156 46.3647 216.844 46.3647 235.801 66.2099V66.2099C245.146 75.9932 258.177 81.3911 271.703 81.0813V81.0813C299.14 80.4529 321.547 102.86 320.919 130.297V130.297C320.609 143.823 326.007 156.854 335.79 166.199V166.199C355.635 185.156 355.635 216.844 335.79 235.801V235.801C326.007 245.146 320.609 258.177 320.919 271.703V271.703C321.547 299.14 299.14 321.547 271.703 320.919V320.919C258.177 320.609 245.146 326.007 235.801 335.79V335.79C216.844 355.635 185.156 355.635 166.199 335.79V335.79C156.854 326.007 143.823 320.609 130.297 320.919V320.919C102.86 321.547 80.4529 299.14 81.0813 271.703V271.703C81.3911 258.177 75.9932 245.146 66.2099 235.801V235.801C46.3647 216.844 46.3647 185.156 66.2099 166.199V166.199C75.9932 156.854 81.3911 143.823 81.0813 130.297V130.297C80.4529 102.86 102.86 80.4529 130.297 81.0813V81.0813C143.823 81.3911 156.854 75.9932 166.199 66.2099V66.2099Z" fill="#FDD8E3"/>
<path d="M176.791 107.233C189.978 93.4273 212.022 93.4273 225.209 107.233V107.233C231.71 114.039 240.776 117.794 250.185 117.578V117.578C269.272 117.141 284.859 132.728 284.422 151.815V151.815C284.206 161.224 287.961 170.29 294.767 176.791V176.791C308.572 189.978 308.572 212.022 294.767 225.209V225.209C287.961 231.71 284.206 240.775 284.422 250.185V250.185C284.859 269.271 269.272 284.859 250.185 284.422V284.422C240.776 284.206 231.71 287.961 225.209 294.767V294.767C212.022 308.572 189.978 308.572 176.791 294.767V294.767C170.29 287.961 161.224 284.206 151.815 284.422V284.422C132.729 284.859 117.141 269.271 117.578 250.185V250.185C117.794 240.775 114.039 231.71 107.233 225.209V225.209C93.4276 212.022 93.4276 189.978 107.233 176.791V176.791C114.039 170.29 117.794 161.224 117.578 151.815V151.815C117.141 132.728 132.729 117.141 151.815 117.578V117.578C161.224 117.794 170.29 114.039 176.791 107.233V107.233Z" fill="#FEF3F6"/>
</g>
<defs>
<filter id="filter0_d_924_5177" x="-4" y="0" width="410" height="410" filterUnits="userSpaceOnUse" color-interpolation-filters="sRGB">
<feFlood flood-opacity="0" result="BackgroundImageFix"/>
<feColorMatrix in="SourceAlpha" type="matrix" values="0 0 0 0 0 0 0 0 0 0 0 0 0 0 0 0 0 0 127 0" result="hardAlpha"/>
<feOffset dy="4"/>
<feGaussianBlur stdDeviation="2"/>
<feComposite in2="hardAlpha" operator="out"/>
<feColorMatrix type="matrix" values="0 0 0 0 0 0 0 0 0 0 0 0 0 0 0 0 0 0 0.17 0"/>
<feBlend mode="normal" in2="BackgroundImageFix" result="effect1_dropShadow_924_5177"/>
<feBlend mode="normal" in="SourceGraphic" in2="effect1_dropShadow_924_5177" result="shape"/>
</filter>
</defs>
</svg>
