<svg width="414" height="414" viewBox="0 0 414 414" fill="none" xmlns="http://www.w3.org/2000/svg">
<g filter="url(#filter0_d_924_5181)">
<path d="M164.928 44.0448C187.845 20.0527 226.155 20.0527 249.072 44.0448V44.0448C260.37 55.8723 276.125 62.3981 292.477 62.0236V62.0236C325.647 61.2639 352.736 88.3528 351.976 121.523V121.523C351.602 137.875 358.128 153.63 369.955 164.928V164.928C393.947 187.845 393.947 226.155 369.955 249.072V249.072C358.128 260.37 351.602 276.125 351.976 292.477V292.477C352.736 325.647 325.647 352.736 292.477 351.976V351.976C276.125 351.602 260.37 358.128 249.072 369.955V369.955C226.155 393.947 187.845 393.947 164.928 369.955V369.955C153.63 358.128 137.875 351.602 121.523 351.976V351.976C88.3528 352.736 61.2639 325.647 62.0236 292.477V292.477C62.3981 276.125 55.8723 260.37 44.0448 249.072V249.072C20.0527 226.155 20.0527 187.845 44.0448 164.928V164.928C55.8723 153.63 62.3981 137.875 62.0236 121.523V121.523C61.2639 88.3528 88.3528 61.2639 121.523 62.0236V62.0236C137.875 62.3981 153.63 55.8723 164.928 44.0448V44.0448Z" fill="#CDDC39"/>
<path d="M171.16 68.1861C190.683 47.7485 223.317 47.7485 242.839 68.1861V68.1861C252.463 78.2615 265.884 83.8204 279.814 83.5014V83.5014C308.07 82.8542 331.145 105.93 330.498 134.186V134.186C330.179 148.116 335.738 161.536 345.814 171.16V171.16C366.251 190.683 366.251 223.317 345.814 242.839V242.839C335.738 252.463 330.179 265.884 330.498 279.814V279.814C331.145 308.07 308.07 331.145 279.814 330.498V330.498C265.884 330.179 252.463 335.738 242.839 345.814V345.814C223.317 366.251 190.683 366.251 171.16 345.814V345.814C161.536 335.738 148.116 330.179 134.186 330.498V330.498C105.93 331.145 82.8542 308.07 83.5014 279.814V279.814C83.8204 265.884 78.2615 252.463 68.1861 242.839V242.839C47.7485 223.317 47.7485 190.683 68.1861 171.16V171.16C78.2615 161.536 83.8204 148.116 83.5014 134.186V134.186C82.8542 105.93 105.93 82.8542 134.186 83.5014V83.5014C148.116 83.8204 161.536 78.2615 171.16 68.1861V68.1861Z" fill="#DCEDC8"/>
<path d="M182.068 110.434C195.649 96.2166 218.351 96.2166 231.932 110.434V110.434C238.627 117.443 247.963 121.31 257.653 121.088V121.088C277.31 120.638 293.362 136.691 292.912 156.347V156.347C292.69 166.037 296.557 175.373 303.566 182.068V182.068C317.784 195.649 317.784 218.351 303.566 231.932V231.932C296.557 238.627 292.69 247.963 292.912 257.653V257.653C293.362 277.31 277.31 293.362 257.653 292.912V292.912C247.963 292.69 238.627 296.557 231.932 303.566V303.566C218.351 317.784 195.649 317.784 182.068 303.566V303.566C175.373 296.557 166.037 292.69 156.347 292.912V292.912C136.691 293.362 120.638 277.31 121.088 257.653V257.653C121.31 247.963 117.443 238.627 110.434 231.932V231.932C96.2166 218.351 96.2166 195.649 110.434 182.068V182.068C117.443 175.373 121.31 166.037 121.088 156.347V156.347C120.638 136.691 136.691 120.638 156.347 121.088V121.088C166.037 121.31 175.373 117.443 182.068 110.434V110.434Z" fill="#FEF3F6"/>
</g>
<defs>
<filter id="filter0_d_924_5181" x="-4" y="0" width="422" height="422" filterUnits="userSpaceOnUse" color-interpolation-filters="sRGB">
<feFlood flood-opacity="0" result="BackgroundImageFix"/>
<feColorMatrix in="SourceAlpha" type="matrix" values="0 0 0 0 0 0 0 0 0 0 0 0 0 0 0 0 0 0 127 0" result="hardAlpha"/>
<feOffset dy="4"/>
<feGaussianBlur stdDeviation="2"/>
<feComposite in2="hardAlpha" operator="out"/>
<feColorMatrix type="matrix" values="0 0 0 0 0 0 0 0 0 0 0 0 0 0 0 0 0 0 0.17 0"/>
<feBlend mode="normal" in2="BackgroundImageFix" result="effect1_dropShadow_924_5181"/>
<feBlend mode="normal" in="SourceGraphic" in2="effect1_dropShadow_924_5181" result="shape"/>
</filter>
</defs>
</svg>
