<svg width="19" height="21" viewBox="0 0 19 21" fill="none" xmlns="http://www.w3.org/2000/svg">
<path fill-rule="evenodd" clip-rule="evenodd" d="M5.50633 4.765L5.50633 3.75C5.50633 2.75544 5.90142 1.80161 6.60468 1.09835C7.30795 0.395088 8.26177 0 9.25634 0C10.2509 0 11.2047 0.395088 11.908 1.09835C12.6112 1.80161 13.0063 2.75544 13.0063 3.75V4.765C14.2933 4.804 15.0813 4.942 15.6823 5.441C16.5153 6.133 16.7353 7.303 17.1743 9.644L17.9243 13.644C18.5413 16.936 18.8493 18.582 17.9503 19.666C17.0503 20.75 15.3753 20.75 12.0263 20.75H6.48633C3.13633 20.75 1.46233 20.75 0.562335 19.666C-0.337665 18.582 -0.0276651 16.936 0.588335 13.644L1.33833 9.644C1.77833 7.304 1.99733 6.133 2.83033 5.441C3.43133 4.942 4.21933 4.804 5.50633 4.765ZM7.00633 3.75C7.00633 3.15326 7.24339 2.58097 7.66534 2.15901C8.0873 1.73705 8.6596 1.5 9.25634 1.5C9.85307 1.5 10.4254 1.73705 10.8473 2.15901C11.2693 2.58097 11.5063 3.15326 11.5063 3.75V4.75H7.00633L7.00633 3.75ZM6.25633 11.947C6.25633 12.931 7.42134 13.971 8.29934 14.616C8.71934 14.924 8.92934 15.078 9.25634 15.078C9.58434 15.078 9.79333 14.924 10.2133 14.616C11.0913 13.971 12.2563 12.931 12.2563 11.946C12.2563 10.274 10.6063 9.649 9.25634 10.941C7.90634 9.649 6.25633 10.273 6.25633 11.947Z" fill="#017E6A"/>
</svg>
